Coordinates
version=1
nRows=12
nColumns=24
inDegrees=yes

Units are S.I. units (second, meters, Newtons, ...)
Angles are in degrees.

endheader
time	pelvis_tilt	pelvis_list	pelvis_rotation	pelvis_tx	pelvis_ty	pelvis_tz	hip_flexion_r	hip_adduction_r	hip_rotation_r	knee_angle_r	ankle_angle_r	subtalar_angle_r	mtp_angle_r	hip_flexion_l	hip_adduction_l	hip_rotation_l	knee_angle_l	ankle_angle_l	subtalar_angle_l	mtp_angle_l	lumbar_extension	lumbar_bending	lumbar_rotation
      1.39466667	     -1.12729861	      2.44495611	     -3.64464207	      0.93072702	      0.95562779	      0.30646586	    -23.12526502	     -2.33443972	     -3.35437331	     -4.49491025	     19.79453776	      4.22434148	     -0.77736845	     27.35862991	      0.85512421	      2.36654178	      3.75708797	      1.97809846	     -6.54667044	      2.42250886	    -11.71414222	      1.63427191	      9.67461384
      1.39883333	     -1.18516103	      2.61513921	     -3.66061116	      0.93689459	      0.95475348	      0.30590752	    -23.22558310	     -2.58733151	     -3.54761548	     -4.91880740	     19.71333497	      4.44370253	     -0.41377704	     27.50927060	      1.08300439	      2.61839552	      3.14932027	      1.51705448	     -7.12289409	      2.56130646	    -11.58490952	      1.40690764	      9.67893011
      1.40300000	     -1.22314615	      2.82359907	     -3.67302603	      0.94314327	      0.95395987	      0.30540442	    -23.37802342	     -2.86622625	     -3.64795512	     -5.27677173	     19.47553430	      4.39143165	     -0.28180437	     27.66385437	      1.34905796	      2.71982111	      2.45204491	      1.20670075	     -7.37039711	      2.61174749	    -11.47422150	      1.08625619	      9.64897426
      1.40716667	     -1.26155418	      3.02106658	     -3.67875000	      0.94938353	      0.95318971	      0.30482792	    -23.50116728	     -3.13957732	     -3.79280212	     -5.68499283	     19.20646807	      4.34056906	      4.93216022	     27.78747405	      1.61885603	      2.99779267	      1.82014907	      0.53169038	     -8.10249527	      4.63661126	    -11.38289706	      0.83027567	      9.59532618
      1.41133333	     -1.34914060	      3.24536968	     -3.69468779	      0.95568632	      0.95240787	      0.30424625	    -23.55139945	     -3.44701961	     -3.96211861	     -6.14010649	     18.99519788	      4.49213620	      5.00280276	     28.00605095	      1.91043460	      3.08605357	      1.07430276	     -0.02270601	     -8.53482943	      4.61935413	    -11.20622938	      0.52056234	      9.62042406
      1.41550000	     -1.42327298	      3.48478517	     -3.70519542	      0.96200597	      0.95168269	      0.30365333	    -23.60360969	     -3.76619554	     -4.12014286	     -6.62024241	     18.75183977	      4.54832789	      5.14026164	     28.19883532	      2.22521550	      3.23762136	      0.34361046	     -0.68753870	     -9.11367135	      4.62083033	    -11.06050204	      0.19891704	      9.59428832
      1.41966667	     -1.49571128	      3.73035909	     -3.71051727	      0.96835638	      0.95100207	      0.30304390	    -23.64934335	     -4.08956743	     -4.27530904	     -7.11586724	     18.46589044	      4.56400441	      5.34337467	     28.40059347	      2.55220124	      3.36386787	     -0.41280984	     -1.41852890	     -9.68222029	      4.63535150	    -10.89996581	     -0.14042396	      9.56098459
      1.42383333	     -1.57906080	      3.99065739	     -3.71468636	      0.97474444	      0.95035406	      0.30243062	    -23.67809333	     -4.42582329	     -4.41341214	     -7.61946182	     18.15050554	      4.55767864	      5.58612090	     28.62588455	      2.89591755	      3.45096996	     -1.20152263	     -2.18933281	    -10.23248533	      4.66506348	    -10.72775564	     -0.49210764	      9.53369975
      1.42800000	     -1.67531429	      4.25823597	     -3.71193071	      0.98113499	      0.94973690	      0.30178744	    -23.67046624	     -4.76877330	     -4.56135175	     -8.16485501	     17.79512089	      4.52804829	      5.91003220	     28.86729298	      3.25323828	      3.54497956	     -1.99384641	     -3.02948172	    -10.82755072	      4.71475421	    -10.54770979	     -0.84595901	      9.49853447
      1.43216667	     -1.76882453	      4.53806620	     -3.70638484	      0.98756827	      0.94916824	      0.30113379	    -23.66075380	     -5.12218158	     -4.70408960	     -8.71812373	     17.40636462	      4.47971511	      6.29372170	     29.12998047	      3.62656257	      3.59616150	     -2.84925420	     -3.85483301	    -11.35240271	      4.76584154	    -10.36558618	     -1.21724762	      9.45788440
      1.43633333	     -1.86840769	      4.82794750	     -3.69665405	      0.99399335	      0.94864411	      0.30045058	    -23.61811467	     -5.48696875	     -4.85187748	     -9.31924857	     16.97170915	      4.40969568	      6.81752970	     29.39450180	      4.01685813	      3.68242776	     -3.69940754	     -4.71062980	    -11.95367719	      4.83318594	    -10.18144776	     -1.59746628	      9.42194769
      1.44050000	     -1.91059193	      5.15781007	     -3.66104628	      1.00050719	      0.94822244	      0.29975529	    -23.65750195	     -5.88123199	     -5.05862913	     -9.87731783	     16.39226573	      4.19246509	     13.15203548	     29.61893422	      4.45960628	      3.68616857	     -4.60299130	     -5.47119849	    -12.37095921	      5.69933892	    -10.05916651	     -2.04183024	      9.33009846
